<!DOCTYPE svg PUBLIC "-//W3C//DTD SVG 1.1//EN" "http://www.w3.org/Graphics/SVG/1.1/DTD/svg11.dtd">
<!-- Uploaded to: SVG Repo, www.svgrepo.com, Transformed by: SVG Repo Mixer Tools -->
<svg fill="#ffffff" height="800px" width="800px" version="1.1" id="Layer_1" xmlns="http://www.w3.org/2000/svg" xmlns:xlink="http://www.w3.org/1999/xlink" viewBox="0 0 500.012 500.012" xml:space="preserve" stroke="#ffffff">
<g id="SVGRepo_bgCarrier" stroke-width="0"/>
<g id="SVGRepo_tracerCarrier" stroke-linecap="round" stroke-linejoin="round"/>
<g id="SVGRepo_iconCarrier"> <g> <g> <path d="M289.372,190.95h-74.804c-4.348,0-7.872,3.524-7.872,7.872c0,4.352,3.524,7.876,7.872,7.876h74.804 c4.348,0,7.872-3.524,7.872-7.876C297.244,194.474,293.72,190.95,289.372,190.95z"/> </g> </g> <g> <g> <path d="M289.372,151.582h-74.804c-4.348,0-7.872,3.528-7.872,7.876c0,4.348,3.524,7.872,7.872,7.872h74.804 c4.348,0,7.872-3.528,7.872-7.872C297.244,155.106,293.72,151.582,289.372,151.582z"/> </g> </g> <g> <g> <path d="M289.372,230.322h-74.804c-4.348,0-7.872,3.528-7.872,7.876c0,4.348,3.524,7.872,7.872,7.872h74.804 c4.348,0,7.872-3.528,7.872-7.872C297.244,233.846,293.72,230.322,289.372,230.322z"/> </g> </g> <g> <g> <path d="M450.788,190.95H379.92c-4.348,0-7.876,3.524-7.876,7.872c0,4.352,3.528,7.876,7.876,7.876h70.868 c4.348,0,7.872-3.524,7.872-7.876C458.66,194.474,455.136,190.95,450.788,190.95z"/> </g> </g> <g> <g> <path d="M450.788,151.582H379.92c-4.348,0-7.876,3.528-7.876,7.876c0,4.348,3.528,7.872,7.876,7.872h70.868 c4.348,0,7.872-3.528,7.872-7.872C458.66,155.106,455.136,151.582,450.788,151.582z"/> </g> </g> <g> <g> <path d="M450.788,230.322H379.92c-4.348,0-7.876,3.528-7.876,7.876c0,4.348,3.528,7.872,7.876,7.872h70.868 c4.348,0,7.872-3.528,7.872-7.872C458.66,233.846,455.136,230.322,450.788,230.322z"/> </g> </g> <g> <g> <path d="M124.016,190.95H53.148c-4.348,0-7.876,3.524-7.876,7.872c0,4.352,3.528,7.876,7.876,7.876h70.868 c4.348,0,7.876-3.524,7.876-7.876C131.892,194.474,128.364,190.95,124.016,190.95z"/> </g> </g> <g> <g> <path d="M124.016,151.582H53.148c-4.348,0-7.876,3.528-7.876,7.876c0,4.348,3.528,7.872,7.876,7.872h70.868 c4.348,0,7.876-3.528,7.876-7.872C131.892,155.106,128.364,151.582,124.016,151.582z"/> </g> </g> <g> <g> <path d="M124.016,230.322H53.148c-4.348,0-7.876,3.528-7.876,7.876c0,4.348,3.528,7.872,7.876,7.872h70.868 c4.348,0,7.876-3.528,7.876-7.872C131.892,233.846,128.364,230.322,124.016,230.322z"/> </g> </g> <g> <g> <path d="M483.956,45.282H350.26c-6.46,0-12.156,3.172-15.748,8c-3.588-4.828-9.284-8-15.752-8H185.072 c-6.46,0-12.156,3.172-15.752,8c-3.588-4.828-9.28-8-15.748-8H19.884C9.028,45.282,0,54.278,0,65.13v369.752 c0,10.852,9.028,19.848,19.884,19.848h133.692c6.464,0,12.156-3.172,15.748-8c3.592,4.828,9.288,8,15.752,8h133.696 c6.464,0,12.16-3.172,15.752-8c3.588,4.828,9.284,8,15.748,8h133.696c10.852,0,16.044-8.996,16.044-19.848V65.13 C500,54.278,494.808,45.282,483.956,45.282z M86.728,407.486c-26.092,0-47.244-21.156-47.244-47.244 c0-26.088,21.148-47.244,47.244-47.244c26.088,0,47.244,21.156,47.244,47.244C133.972,386.33,112.816,407.486,86.728,407.486z M137.796,277.566h-106.3V100.402h78.692h27.608V277.566z M251.916,407.486c-26.088,0-47.248-21.156-47.248-47.244 c0-26.088,21.156-47.244,47.248-47.244c26.092,0,47.248,21.156,47.248,47.244C299.164,386.33,278.008,407.486,251.916,407.486z M303.152,277.566h-0.004H192.916V100.402h82.228h28.008V277.566z M417.112,407.486c-26.092,0-47.248-21.156-47.248-47.244 c0-26.088,21.152-47.244,47.248-47.244c26.088,0,47.244,21.156,47.244,47.244C464.356,386.33,443.204,407.486,417.112,407.486z M358.268,277.566V100.402h82.3H468.5v177.164H358.268z"/> </g> </g> </g>
</svg>